<svg xmlns="http://www.w3.org/2000/svg" xmlns:se="http://svg-edit.googlecode.com" xmlns:xlink="http://www.w3.org/1999/xlink" xmlns:dc="http://purl.org/dc/elements/1.1/" xmlns:cc="http://creativecommons.org/ns#" xmlns:rdf="http://www.w3.org/1999/02/22-rdf-syntax-ns#" xmlns:inkscape="http://www.inkscape.org/namespaces/inkscape" width="777" height="480" style="">                                    <title>my vector image</title>                                    <!-- Created with Vector Paint - http://www.vectorpaint.yaks.com/ https://chrome.google.com/webstore/detail/hnbpdiengicdefcjecjbnjnoifekhgdo -->                                    <rect id="backgroundrect" width="100%" height="100%" x="0" y="0" fill="#FFFFFF" stroke="none"/>                                <g class="currentLayer" style=""><title>Layer 1</title><path fill="#4a90d6" fill-opacity="1" stroke="#222222" stroke-opacity="1" stroke-width="2" stroke-dasharray="none" stroke-linejoin="round" stroke-linecap="butt" stroke-dashoffset="" fill-rule="nonzero" opacity="1" marker-start="" marker-mid="" marker-end="" d="M144,177 C144,141.64088397790056 172.4171270718232,113 207.5,113 C242.5828729281768,113 271,141.64088397790056 271,177 C271,212.35911602209944 242.5828729281768,241 207.5,241 C172.4171270718232,241 144,212.35911602209944 144,177 Z" id="svg_1"/><polyline fill="none" stroke="#222222" stroke-width="2" stroke-linejoin="round" stroke-dashoffset="" fill-rule="nonzero" marker-start="" marker-mid="" marker-end="" id="svg_2" points="177.63929226341364,157.1329441276402 178.21732693912168,155.97687477622415 178.7953616148297,155.97687477622415 179.37339629053767,155.39884010051617 179.9514309662457,154.82080542480816 181.1075003176617,153.66473607339213 182.26356966907775,152.5086667219761 182.8416043447858,151.9306320462681 183.41963902049378,151.3525973705601 183.41963902049378,150.77456269485208 183.41963902049378,150.19652801914404 183.9976736962018,150.19652801914404 183.9976736962018,149.61849334343603 183.9976736962018,148.46242399202 183.9976736962018,147.884389316312 183.9976736962018,147.30635464060398 183.41963902049378,147.30635464060398 182.8416043447858,146.15028528918796 181.68553499336974,145.57225061347995 181.1075003176617,145.57225061347995 179.9514309662457,145.57225061347995 178.7953616148297,144.99421593777194 177.63929226341364,144.99421593777194 175.9051882362896,144.99421593777194 174.7491188848736,144.41618126206393 174.17108420916557,144.41618126206393 173.5930495334576,144.41618126206393 173.01501485774958,144.41618126206393 172.43698018204154,144.41618126206393 170.70287615491748,144.41618126206393 168.96877212779344,144.99421593777194 168.39073745208543,145.57225061347995 167.2346681006694,146.15028528918796 166.6566334249614,146.72831996489597 164.92252939783737,147.884389316312 164.34449472212935,149.61849334343603 163.76646004642134,150.19652801914404 163.18842537071333,151.9306320462681 162.61039069500532,153.08670139768412 162.61039069500532,154.24277074910015 162.61039069500532,154.82080542480816 162.0323560192973,155.97687477622415 162.0323560192973,157.1329441276402 162.0323560192973,158.28901347905625 162.0323560192973,159.44508283047227 162.0323560192973,161.1791868575963 162.0323560192973,161.75722153330432 162.0323560192973,162.91329088472034 162.0323560192973,164.06936023613642 162.61039069500532,165.2254295875524 163.18842537071333,165.80346426326045 163.18842537071333,166.95953361467645 163.76646004642134,168.11560296609247 164.34449472212935,169.2716723175085 164.92252939783737,169.2716723175085 165.50056407354538,170.42774166892454 166.0785987492534,170.42774166892454 166.6566334249614,170.42774166892454 167.2346681006694,170.42774166892454 168.39073745208543,170.42774166892454 168.96877212779344,170.42774166892454 170.12484147920946,170.42774166892454 170.70287615491748,170.42774166892454 171.2809108306255,170.42774166892454 171.8589455063335,169.2716723175085 173.01501485774958,168.69363764180048 173.5930495334576,168.11560296609247 173.5930495334576,166.95953361467645 174.17108420916557,166.38149893896843 174.17108420916557,165.2254295875524 174.17108420916557,164.6473949118444 174.17108420916557,163.49132556042835 174.17108420916557,162.91329088472034 174.17108420916557,162.33525620901233 175.32715356058162,161.75722153330432 175.32715356058162,161.1791868575963 175.32715356058162,160.02311750618028 175.32715356058162,158.86704815476426 175.32715356058162,158.28901347905625 175.9051882362896,157.1329441276402 175.9051882362896,156.5549094519322 175.9051882362896,155.39884010051617 176.48322291199764,154.82080542480816 176.48322291199764,154.24277074910015 177.63929226341364,153.66473607339213 177.63929226341364,153.08670139768412 178.21732693912168,152.5086667219761 178.21732693912168,151.9306320462681 178.7953616148297,151.9306320462681 179.37339629053767,151.9306320462681 179.9514309662457,151.9306320462681 181.1075003176617,151.9306320462681 182.26356966907775,151.9306320462681 " style="color: rgb(0, 0, 0);"/><polyline fill="none" stroke="#222222" stroke-width="2" stroke-linejoin="round" stroke-dashoffset="" fill-rule="nonzero" marker-start="" marker-mid="" marker-end="" id="svg_3" points="194.98033253465405,138.05779982927578 194.40229785894604,138.05779982927578 193.82426318323803,137.47976515356774 193.24622850753002,136.32369580215172 193.24622850753002,135.1676264507357 193.24622850753002,134.58959177502769 193.24622850753002,134.01155709931967 193.24622850753002,133.43352242361166 193.24622850753002,132.85548774790365 193.24622850753002,132.27745307219564 192.668193831822,131.69941839648763 192.668193831822,131.1213837207796 192.668193831822,130.54334904507158 192.668193831822,129.38727969365556 192.668193831822,128.23121034223954 193.24622850753002,127.07514099082351 193.82426318323803,126.4971063151155 194.40229785894604,125.91907163940749 194.98033253465405,125.34103696369948 195.55836721036206,125.34103696369948 195.55836721036206,124.76300228799144 196.13640188607008,124.18496761228344 196.7144365617781,124.18496761228344 197.2924712374861,124.18496761228344 197.8705059131941,124.18496761228344 197.8705059131941,123.60693293657542 198.44854058890218,123.60693293657542 199.0265752646102,123.02889826086741 199.6046099403182,123.02889826086741 200.1826446160262,123.02889826086741 201.91674864315024,122.45086358515941 202.49478331885825,121.87282890945139 203.65085267027428,121.87282890945139 204.8069220216903,121.87282890945139 205.3849566973983,121.87282890945139 205.96299137310632,121.87282890945139 206.54102604881433,121.87282890945139 207.11906072452234,121.87282890945139 208.27513007593834,121.87282890945139 208.85316475164637,121.87282890945139 210.00923410306237,121.87282890945139 210.5872687787704,121.87282890945139 211.1653034544785,121.87282890945139 211.7433381301865,121.87282890945139 212.3213728058945,121.87282890945139 212.89940748160254,121.87282890945139 213.47744215731052,122.45086358515941 214.05547683301853,123.02889826086741 214.63351150872657,123.02889826086741 215.78958086014256,123.60693293657542 216.3676155358506,123.60693293657542 216.9456502115586,123.60693293657542 216.9456502115586,124.18496761228344 218.10171956297464,124.76300228799144 218.10171956297464,125.34103696369948 218.67975423868262,125.34103696369948 219.25778891439063,125.91907163940749 219.25778891439063,126.4971063151155 219.25778891439063,127.07514099082351 219.25778891439063,127.65317566653152 219.25778891439063,128.23121034223954 219.25778891439063,128.80924501794755 219.25778891439063,129.38727969365556 219.25778891439063,129.96531436936357 218.67975423868262,129.96531436936357 218.67975423868262,130.54334904507158 218.10171956297464,130.54334904507158 217.5236848872666,130.54334904507158 217.5236848872666,131.1213837207796 216.9456502115586,131.1213837207796 216.3676155358506,131.1213837207796 215.78958086014256,131.1213837207796 215.21154618443455,131.1213837207796 214.63351150872657,131.1213837207796 214.05547683301853,131.1213837207796 212.89940748160254,131.1213837207796 212.3213728058945,131.1213837207796 211.7433381301865,131.1213837207796 210.5872687787704,131.1213837207796 209.4311994273544,131.1213837207796 208.27513007593834,131.1213837207796 207.69709540023035,131.1213837207796 207.11906072452234,131.1213837207796 205.3849566973983,131.69941839648763 204.2288873459823,132.27745307219564 203.07281799456626,132.27745307219564 203.07281799456626,132.85548774790365 202.49478331885825,132.85548774790365 202.49478331885825,133.43352242361166 201.91674864315024,133.43352242361166 201.91674864315024,134.01155709931967 200.76067929173422,135.1676264507357 200.76067929173422,135.7456611264437 200.76067929173422,136.32369580215172 200.1826446160262,136.90173047785973 200.1826446160262,137.47976515356774 200.1826446160262,138.05779982927578 199.6046099403182,138.6358345049838 199.6046099403182,139.2138691806918 199.6046099403182,139.7919038563998 199.0265752646102,139.7919038563998 198.44854058890218,139.7919038563998 198.44854058890218,140.36993853210782 197.8705059131941,140.36993853210782 197.2924712374861,140.36993853210782 196.7144365617781,140.36993853210782 196.13640188607008,140.36993853210782 194.98033253465405,139.7919038563998 193.82426318323803,139.7919038563998 193.24622850753002,138.6358345049838 192.668193831822,138.6358345049838 191.512124480406,138.05779982927578 190.93408980469798,136.90173047785973 " style="color: rgb(0, 0, 0);"/><polyline fill="none" stroke="#222222" stroke-width="2" stroke-linejoin="round" stroke-dashoffset="" fill-rule="nonzero" marker-start="" marker-mid="" marker-end="" id="svg_4" points="221.56992761722267,197.59537142720117 222.1479622929307,196.43930207578515 222.1479622929307,195.8612674000771 222.1479622929307,194.70519804866112 221.56992761722267,195.2832327243691 220.9918929415147,195.8612674000771 220.9918929415147,197.01733675149316 220.9918929415147,198.17340610290918 221.56992761722267,199.3294754543252 222.1479622929307,200.48554480574123 222.72599696863873,201.64161415715725 224.46010099576276,202.21964883286526 225.03813567147074,202.7976835085733 226.77223969859477,202.7976835085733 228.5063437257188,203.3757181842813 229.66241307713486,203.95375285998932 231.39651710425898,203.95375285998932 233.130621131383,203.95375285998932 234.286690482799,203.95375285998932 234.864725158507,203.3757181842813 235.44275983421502,203.3757181842813 236.02079450992304,203.3757181842813 236.59882918563105,202.21964883286526 237.17686386133906,201.64161415715725 237.75489853704707,199.3294754543252 238.33293321275508,198.17340610290918 238.33293321275508,197.59537142720117 238.33293321275508,197.01733675149316 238.33293321275508,195.8612674000771 238.33293321275508,195.2832327243691 238.9109678884631,194.12716337295308 238.9109678884631,193.54912869724507 238.9109678884631,192.97109402153703 239.4890025641711,191.81502467012103 240.0670372398791,190.658955318705 240.0670372398791,189.50288596728896 240.0670372398791,188.34681661587294 240.0670372398791,187.19074726445692 240.0670372398791,186.0346779130409 240.0670372398791,185.45664323733288 239.4890025641711,184.87860856162487 239.4890025641711,184.30057388591686 238.9109678884631,184.30057388591686 238.33293321275508,183.14450453450084 237.75489853704707,183.14450453450084 237.17686386133906,182.5664698587928 236.59882918563105,182.5664698587928 235.44275983421502,182.5664698587928 234.864725158507,182.5664698587928 233.708655807091,182.5664698587928 231.97455177996696,183.14450453450084 231.39651710425898,183.72253921020885 230.24044775284284,183.72253921020885 229.08437840142685,184.30057388591686 229.08437840142685,184.87860856162487 227.92830905001082,184.87860856162487 227.92830905001082,186.0346779130409 227.3502743743028,186.0346779130409 227.3502743743028,186.6127125887489 227.3502743743028,187.19074726445692 226.77223969859477,187.19074726445692 226.77223969859477,187.76878194016493 226.77223969859477,188.34681661587294 226.77223969859477,188.92485129158095 226.1942050228868,190.080920642997 226.1942050228868,191.236989994413 226.1942050228868,191.81502467012103 226.1942050228868,192.39305934582904 225.61617034717878,192.39305934582904 225.03813567147074,192.39305934582904 224.46010099576276,192.39305934582904 224.46010099576276,192.97109402153703 223.88206632005475,192.97109402153703 223.3040316443467,192.97109402153703 222.72599696863873,192.97109402153703 222.72599696863873,193.54912869724507 222.1479622929307,193.54912869724507 222.1479622929307,194.12716337295308 221.56992761722267,194.12716337295308 " style="color: rgb(0, 0, 0);"/><polyline fill="none" stroke="#222222" stroke-width="2" stroke-linejoin="round" stroke-dashoffset="" fill-rule="nonzero" marker-start="" marker-mid="" marker-end="" id="svg_5" points="229.08437840142685,196.43930207578515 229.08437840142685,195.8612674000771 229.08437840142685,195.2832327243691 229.08437840142685,194.70519804866112 229.08437840142685,194.12716337295308 229.66241307713486,193.54912869724507 230.24044775284284,193.54912869724507 230.81848242855094,192.97109402153703 231.39651710425898,192.97109402153703 231.39651710425898,192.39305934582904 231.97455177996696,192.39305934582904 232.55258645567497,191.81502467012103 233.130621131383,191.81502467012103 233.708655807091,191.81502467012103 233.708655807091,191.236989994413 233.708655807091,190.658955318705 233.708655807091,190.080920642997 233.708655807091,189.50288596728896 233.708655807091,188.34681661587294 233.708655807091,187.76878194016493 233.708655807091,187.19074726445692 233.708655807091,186.6127125887489 233.130621131383,187.19074726445692 233.130621131383,187.76878194016493 233.130621131383,188.34681661587294 " style="color: rgb(0, 0, 0);"/><polyline fill="none" stroke="#222222" stroke-width="2" stroke-linejoin="round" stroke-dashoffset="" fill-rule="nonzero" marker-start="" marker-mid="" marker-end="" id="svg_6" points="230.24044775284284,195.2832327243691 230.81848242855094,195.2832327243691 231.97455177996696,195.2832327243691 233.130621131383,195.2832327243691 233.708655807091,194.70519804866112 234.286690482799,194.12716337295308 234.286690482799,193.54912869724507 234.286690482799,192.97109402153703 234.286690482799,192.39305934582904 234.286690482799,191.81502467012103 " style="color: rgb(0, 0, 0);"/><polyline fill="none" stroke="#222222" stroke-width="2" stroke-linejoin="round" stroke-dashoffset="" fill-rule="nonzero" marker-start="" marker-mid="" marker-end="" id="svg_7" points="200.7606799006462,160.0231170654297 203.0728136897087,155.97686767578125 203.0728136897087,155.39883422851562 205.9629961848259,153.66473388671875 207.69709652662277,153.08670043945312 209.43119686841965,152.5086669921875 210.5872637629509,151.93063354492188 213.47744625806808,150.77456665039062 215.21154659986496,150.77456665039062 216.94564694166183,150.196533203125 219.2577959895134,150.196533203125 220.99189633131027,150.196533203125 223.8820635676384,150.196533203125 225.03813046216965,150.196533203125 226.1941973567009,150.196533203125 227.3502795100212,150.196533203125 228.50634640455246,150.196533203125 230.24044674634933,150.196533203125 231.39651364088058,150.77456665039062 231.9745470881462,150.77456665039062 232.55258053541183,151.35260009765625 234.28669613599777,152.5086669921875 235.44276303052902,153.08670043945312 237.1768633723259,154.24276733398438 238.33293026685715,154.82080078125 238.33293026685715,155.39883422851562 238.91096371412277,155.39883422851562 238.91096371412277,156.55491638183594 239.4889971613884,157.7109832763672 239.4889971613884,159.44508361816406 239.4889971613884,161.17918395996094 239.4889971613884,162.3352508544922 238.91096371412277,164.06936645507812 238.91096371412277,164.64739990234375 238.91096371412277,165.803466796875 238.33293026685715,166.38150024414062 237.1768633723259,168.1156005859375 237.1768633723259,168.69363403320312 236.59882992506027,169.84970092773438 235.44276303052902,169.84970092773438 234.28669613599777,171.0057830810547 233.13061398267746,171.5838165283203 231.9745470881462,172.16184997558594 230.81848019361496,172.73988342285156 230.24044674634933,173.3179168701172 229.6624132990837,173.3179168701172 227.92831295728683,173.3179168701172 225.61616390943527,172.73988342285156 223.8820635676384,172.16184997558594 222.14796322584152,172.16184997558594 220.41386288404465,171.5838165283203 218.6797472834587,171.5838165283203 215.78958004713058,171.0057830810547 215.21154659986496,171.0057830810547 213.47744625806808,170.427734375 212.89941281080246,170.427734375 211.74333065748215,170.427734375 211.16529721021652,170.427734375 210.5872637629509,170.427734375 210.00923031568527,171.5838165283203 209.43119686841965,171.5838165283203 208.85316342115402,171.5838165283203 208.2751299738884,172.73988342285156 208.2751299738884,173.3179168701172 207.69709652662277,173.8959503173828 207.11906307935715,173.8959503173828 206.54102963209152,175.05201721191406 206.54102963209152,176.2080841064453 205.9629961848259,177.36415100097656 205.9629961848259,178.52023315429688 205.38496273756027,179.67630004882812 204.80692929029465,180.25433349609375 204.80692929029465,180.83236694335938 204.22888058423996,180.83236694335938 204.22888058423996,181.410400390625 203.65084713697433,181.410400390625 203.0728136897087,181.98843383789062 201.91674679517746,181.98843383789062 200.7606799006462,181.98843383789062 200.18264645338058,181.98843383789062 199.02657955884933,181.98843383789062 198.4485461115837,181.410400390625 197.2924639582634,180.83236694335938 196.13639706373215,179.67630004882812 194.9803301692009,178.52023315429688 194.40229672193527,177.36415100097656 194.40229672193527,176.78611755371094 194.40229672193527,176.2080841064453 194.40229672193527,175.6300506591797 194.40229672193527,175.05201721191406 195.55836361646652,175.05201721191406 196.13639706373215,175.05201721191406 " style="color: rgb(0, 0, 0);" class=""/><polyline fill="none" stroke="#222222" stroke-width="2" stroke-linejoin="round" stroke-dashoffset="" fill-rule="nonzero" marker-start="" marker-mid="" marker-end="" id="svg_8" points="208.8531647516464,180.83236583166877 212.89940748160248,180.83236583166877 213.4774421573105,180.83236583166877 214.0554768330185,180.83236583166877 214.6335115087265,181.41040050737678 215.21154618443452,181.9884351830848 215.78958086014254,183.14450453450084 215.78958086014254,184.30057388591686 216.36761553585055,184.87860856162487 216.94565021155861,186.0346779130409 216.94565021155861,186.6127125887489 216.94565021155861,187.19074726445692 216.94565021155861,187.76878194016493 216.94565021155861,188.34681661587294 217.52368488726663,189.50288596728896 216.94565021155861,189.50288596728896 216.36761553585055,189.50288596728896 215.78958086014254,189.50288596728896 215.21154618443452,189.50288596728896 215.21154618443452,188.92485129158098 215.21154618443452,188.34681661587294 214.6335115087265,188.34681661587294 214.0554768330185,187.76878194016493 213.4774421573105,187.19074726445692 212.89940748160248,186.6127125887489 212.89940748160248,186.0346779130409 212.89940748160248,185.45664323733288 212.32137280589447,185.45664323733288 211.74333813018646,184.87860856162487 211.16530345447845,183.72253921020885 211.16530345447845,183.14450453450084 210.58726877877044,181.9884351830848 " style="color: rgb(0, 0, 0);"/><polyline fill="none" stroke="#222222" stroke-width="2" stroke-linejoin="round" stroke-dashoffset="" fill-rule="nonzero" marker-start="" marker-mid="" marker-end="" id="svg_9" points="171.28091083062552,170.42774166892454 172.43698018204154,173.3179150474646 173.01501485774955,175.05201907458863 174.17108420916557,176.20808842600468 174.74911888487358,177.3641577774207 175.3271535605816,177.9421924531287 176.48322291199761,179.09826180454473 177.63929226341364,179.67629648025274 178.21732693912165,180.25433115596076 179.37339629053773,180.25433115596076 179.95143096624574,180.83236583166877 181.10750031766176,181.41040050737678 181.68553499336977,181.41040050737678 " style="color: rgb(0, 0, 0);"/><polyline fill="none" stroke="#222222" stroke-width="2" stroke-linejoin="round" stroke-dashoffset="" fill-rule="nonzero" marker-start="" marker-mid="" marker-end="" id="svg_10" points="179.95143096624574,179.67629648025274 179.95143096624574,179.09826180454473 179.95143096624574,178.52022712883672 179.95143096624574,177.9421924531287 179.95143096624574,176.7861231017127 179.95143096624574,175.63005375029664 179.37339629053773,174.4739843988806 178.79536161482972,173.3179150474646 177.06125758770563,172.16184569604857 175.9051882362896,171.00577634463252 174.17108420916557,170.42774166892454 173.59304953345756,170.42774166892454 173.01501485774955,170.42774166892454 172.43698018204154,171.00577634463252 171.85894550633353,172.16184569604857 171.85894550633353,172.73988037175656 " style="color: rgb(0, 0, 0);"/><polyline fill="none" stroke="#222222" stroke-width="2" stroke-linejoin="round" stroke-dashoffset="" fill-rule="nonzero" marker-start="" marker-mid="" marker-end="" id="svg_11" points="183.99767369620182,186.6127125887489 186.88784707474187,191.81502467012103 187.46588175044988,192.39305934582904 188.0439164261579,193.54912869724507 188.6219511018659,193.54912869724507 189.19998577757391,193.54912869724507 189.19998577757391,192.97109402153703 189.19998577757391,191.236989994413 188.6219511018659,190.080920642997 188.0439164261579,188.34681661587294 186.88784707474187,187.76878194016493 185.73177772332585,186.0346779130409 183.99767369620182,184.87860856162487 183.4196390204938,184.87860856162487 182.8416043447858,184.30057388591686 182.26356966907778,184.30057388591686 181.68553499336977,184.30057388591686 181.10750031766176,184.30057388591686 180.52946564195375,184.30057388591686 179.95143096624574,184.87860856162487 179.95143096624574,185.45664323733288 179.95143096624574,186.6127125887489 " style="color: rgb(0, 0, 0);"/><polyline fill="none" stroke="#222222" stroke-width="2" stroke-linejoin="round" stroke-dashoffset="" fill-rule="nonzero" marker-start="" marker-mid="" marker-end="" id="svg_12" points="189.77802045328193,199.3294754543252 193.24622850753005,203.95375285998932 193.82426318323806,204.53178753569733 194.40229785894604,205.68785688711336 195.5583672103621,206.26589156282137 196.13640188607013,206.26589156282137 196.13640188607013,205.10982221140534 196.13640188607013,203.95375285998932 196.13640188607013,202.2196488328653 194.98033253465408,200.48554480574123 193.82426318323806,198.7514407786172 192.09015915611403,198.7514407786172 192.09015915611403,198.17340610290918 191.51212448040602,198.17340610290918 190.93408980469795,198.17340610290918 190.35605512898994,198.17340610290918 190.35605512898994,198.7514407786172 " style="color: rgb(0, 0, 0);"/><polyline fill="none" stroke="#222222" stroke-width="2" stroke-linejoin="round" stroke-dashoffset="" fill-rule="nonzero" marker-start="" marker-mid="" marker-end="" id="svg_13" points="224.46010099576276,135.1676264507357 231.97455177996696,142.68207723493987 232.55258645567497,143.26011191064788 233.130621131383,143.26011191064788 233.708655807091,143.26011191064788 233.708655807091,142.68207723493987 233.708655807091,141.52600788352385 233.130621131383,140.36993853210782 230.81848242855094,138.05779982927578 228.5063437257188,136.32369580215172 227.3502743743028,135.1676264507357 226.1942050228868,134.58959177502769 225.61617034717878,134.01155709931967 " style="color: rgb(0, 0, 0);"/><polyline fill="none" stroke="#222222" stroke-width="2" stroke-linejoin="round" stroke-dashoffset="" fill-rule="nonzero" marker-start="" marker-mid="" marker-end="" id="svg_14" points="238.33293321275508,150.77456269485208 244.69131464554326,153.66473607339213 245.26934932125127,153.66473607339213 245.84738399695928,153.66473607339213 246.4254186726673,153.66473607339213 247.0034533483753,153.66473607339213 247.0034533483753,152.5086667219761 246.4254186726673,150.77456269485208 244.69131464554326,149.61849334343603 242.95721061841923,148.46242399202 241.80114126700315,147.30635464060398 241.80114126700315,148.46242399202 241.80114126700315,149.04045866772805 " style="color: rgb(0, 0, 0);"/><polyline fill="none" stroke="#222222" stroke-width="2" stroke-linejoin="round" stroke-dashoffset="" fill-rule="nonzero" marker-start="" marker-mid="" marker-end="" id="svg_15" points="251.6277307540394,160.02311750618028 260.87628556536765,167.53756829038446 261.4543202410756,167.53756829038446 261.4543202410756,165.80346426326045 261.4543202410756,162.91329088472034 259.14218153824356,160.6011521818883 256.8300428354115,159.44508283047227 255.67397348399552,158.28901347905625 254.51790413257945,158.28901347905625 253.93986945687143,158.28901347905625 " style="color: rgb(0, 0, 0);"/><polyline fill="none" stroke="#222222" stroke-width="2" stroke-linejoin="round" stroke-dashoffset="" fill-rule="nonzero" marker-start="" marker-mid="" marker-end="" id="svg_16" points="168.9687721277935,151.9306320462681 168.39073745208546,151.9306320462681 168.39073745208546,152.5086667219761 167.81270277637745,152.5086667219761 167.23466810066947,152.5086667219761 167.23466810066947,153.08670139768412 166.65663342496143,153.08670139768412 166.07859874925342,153.08670139768412 166.07859874925342,153.66473607339213 166.07859874925342,154.24277074910015 166.07859874925342,154.82080542480816 166.07859874925342,155.97687477622415 166.07859874925342,156.5549094519322 166.07859874925342,157.13294412764023 166.07859874925342,157.71097880334824 166.65663342496143,157.71097880334824 166.65663342496143,158.28901347905625 167.81270277637745,158.86704815476426 168.39073745208546,159.44508283047227 168.9687721277935,160.02311750618028 169.54680680350148,160.02311750618028 170.1248414792095,160.02311750618028 170.7028761549175,160.02311750618028 171.28091083062552,160.02311750618028 172.43698018204154,160.02311750618028 173.59304953345756,160.02311750618028 174.17108420916557,160.02311750618028 174.74911888487358,159.44508283047227 174.74911888487358,158.86704815476426 174.74911888487358,158.28901347905625 175.3271535605816,157.13294412764023 175.3271535605816,156.5549094519322 175.3271535605816,155.97687477622415 175.3271535605816,155.39884010051617 175.3271535605816,154.82080542480816 174.74911888487358,154.24277074910015 174.74911888487358,153.66473607339213 174.17108420916557,152.5086667219761 174.17108420916557,151.9306320462681 173.59304953345756,151.3525973705601 173.01501485774955,150.77456269485208 171.85894550633353,150.19652801914404 171.85894550633353,149.61849334343603 171.28091083062552,149.61849334343603 170.1248414792095,149.04045866772805 169.54680680350148,149.04045866772805 168.9687721277935,149.04045866772805 168.9687721277935,149.61849334343603 168.39073745208546,150.19652801914404 167.23466810066947,150.77456269485208 166.65663342496143,150.77456269485208 166.65663342496143,151.3525973705601 166.07859874925342,152.5086667219761 " style="color: rgb(0, 0, 0);"/><polyline fill="none" stroke="#222222" stroke-width="2" stroke-linejoin="round" stroke-dashoffset="" fill-rule="nonzero" marker-start="" marker-mid="" marker-end="" id="svg_17" points="201.9167486431502,121.87282890945139 200.7606792917342,121.87282890945139 200.18264461602618,121.87282890945139 199.6046099403182,121.87282890945139 199.02657526461016,121.87282890945139 199.02657526461016,122.45086358515941 197.87050591319417,122.45086358515941 197.29247123748613,123.02889826086741 197.29247123748613,123.60693293657542 196.71443656177811,124.18496761228344 196.71443656177811,124.76300228799147 196.71443656177811,125.34103696369948 196.13640188607013,126.4971063151155 195.5583672103621,127.65317566653152 195.5583672103621,128.80924501794755 195.5583672103621,129.38727969365556 195.5583672103621,130.54334904507158 196.13640188607013,131.12138372077962 197.29247123748613,131.69941839648763 198.44854058890215,132.27745307219564 199.02657526461016,132.85548774790365 199.6046099403182,132.85548774790365 200.18264461602618,133.43352242361166 201.33871396744223,133.43352242361166 201.9167486431502,133.43352242361166 203.07281799456626,133.43352242361166 203.65085267027425,133.43352242361166 204.22888734598232,133.43352242361166 204.80692202169033,132.85548774790365 205.96299137310635,132.85548774790365 205.96299137310635,132.27745307219564 206.54102604881436,131.69941839648763 207.11906072452237,131.12138372077962 208.2751300759384,129.38727969365556 208.8531647516464,128.80924501794755 208.8531647516464,128.23121034223954 208.8531647516464,127.65317566653152 208.8531647516464,127.07514099082351 208.8531647516464,126.4971063151155 208.8531647516464,125.91907163940749 208.8531647516464,124.76300228799147 208.2751300759384,124.18496761228344 207.11906072452237,123.02889826086741 206.54102604881436,123.02889826086741 206.54102604881436,122.45086358515941 205.96299137310635,122.45086358515941 205.38495669739834,122.45086358515941 204.80692202169033,122.45086358515941 204.22888734598232,122.45086358515941 203.07281799456626,122.45086358515941 201.9167486431502,123.02889826086741 " style="color: rgb(0, 0, 0);"/><polyline fill="none" stroke="#222222" stroke-width="2" stroke-linejoin="round" stroke-dashoffset="" fill-rule="nonzero" marker-start="" marker-mid="" marker-end="" id="svg_18" points="200.18264461602618,125.34103696369948 199.6046099403182,125.91907163940749 199.6046099403182,126.4971063151155 199.6046099403182,127.07514099082351 200.18264461602618,127.07514099082351 200.7606792917342,127.07514099082351 201.9167486431502,127.07514099082351 202.49478331885823,127.65317566653152 203.07281799456626,127.65317566653152 203.07281799456626,127.07514099082351 203.07281799456626,126.4971063151155 203.07281799456626,125.34103696369948 201.9167486431502,125.34103696369948 201.33871396744223,125.34103696369948 201.33871396744223,124.76300228799147 200.7606792917342,124.76300228799147 200.18264461602618,126.4971063151155 " style="color: rgb(0, 0, 0);"/><polyline fill="none" stroke="#222222" stroke-width="2" stroke-linejoin="round" stroke-dashoffset="" fill-rule="nonzero" marker-start="" marker-mid="" marker-end="" id="svg_19" points="168.9687721277935,152.5086667219761 168.9687721277935,153.08670139768412 168.9687721277935,153.66473607339213 168.9687721277935,154.24277074910015 168.9687721277935,154.82080542480816 169.54680680350148,155.39884010051617 170.1248414792095,155.39884010051617 171.28091083062552,155.39884010051617 171.85894550633353,155.39884010051617 172.43698018204154,155.39884010051617 173.01501485774955,155.39884010051617 173.59304953345756,155.39884010051617 174.17108420916557,155.39884010051617 174.17108420916557,154.82080542480816 174.17108420916557,154.24277074910015 174.17108420916557,153.66473607339213 174.17108420916557,153.08670139768412 172.43698018204154,152.5086667219761 171.85894550633353,152.5086667219761 170.7028761549175,152.5086667219761 170.7028761549175,151.9306320462681 170.1248414792095,151.9306320462681 169.54680680350148,152.5086667219761 168.9687721277935,153.08670139768412 168.9687721277935,153.66473607339213 168.9687721277935,154.82080542480816 169.54680680350148,155.97687477622415 169.54680680350148,157.13294412764023 " style="color: rgb(0, 0, 0);"/><polyline fill="none" stroke="#222222" stroke-width="2" stroke-linejoin="round" stroke-dashoffset="" fill-rule="nonzero" marker-start="" marker-mid="" marker-end="" id="svg_20" points="197.29247123748613,155.39884010051617 197.29247123748613,151.9306320462681 197.29247123748613,152.5086667219761 197.29247123748613,153.08670139768412 197.29247123748613,154.24277074910015 197.87050591319417,154.82080542480816 199.02657526461016,155.39884010051617 200.18264461602618,155.39884010051617 201.9167486431502,156.5549094519322 203.65085267027425,157.13294412764023 204.22888734598232,157.71097880334824 " style="color: rgb(0, 0, 0);"/><polyline fill="none" stroke="#222222" stroke-width="2" stroke-linejoin="round" stroke-dashoffset="" fill-rule="nonzero" marker-start="" marker-mid="" marker-end="" id="svg_21" points="211.74333813018646,171.58381102034056 211.16530345447845,175.05201907458863 210.58726877877044,175.63005375029664 208.8531647516464,176.7861231017127 207.11906072452237,177.3641577774207 205.96299137310635,178.52022712883672 205.38495669739834,178.52022712883672 204.22888734598232,178.52022712883672 203.07281799456626,178.52022712883672 201.9167486431502,178.52022712883672 " style="color: rgb(0, 0, 0);"/><polyline fill="none" stroke="#222222" stroke-width="2" stroke-linejoin="round" stroke-dashoffset="" fill-rule="nonzero" marker-start="" marker-mid="" marker-end="" id="svg_22" points="228.5063437257188,211.46820364419352 229.66241307713486,209.7340996170695 230.24044775284293,209.15606494136145 230.81848242855094,208.57803026565344 231.39651710425898,207.4219609142374 232.55258645567497,205.68785688711336 232.55258645567497,205.10982221140534 233.130621131383,204.53178753569733 234.286690482799,203.95375285998932 235.44275983421502,203.95375285998932 237.17686386133906,203.3757181842813 238.9109678884631,202.7976835085733 240.0670372398791,202.2196488328653 242.37917594271116,201.64161415715725 244.11327996983525,200.48554480574123 246.4254186726673,199.90751013003322 247.5814880240833,199.90751013003322 248.15952269979132,199.90751013003322 249.31559205120735,199.3294754543252 249.89362672691536,199.3294754543252 249.89362672691536,198.7514407786172 " style="color: rgb(0, 0, 0);"/><polyline fill="none" stroke="#222222" stroke-width="2" stroke-linejoin="round" stroke-dashoffset="" fill-rule="nonzero" marker-start="" marker-mid="" marker-end="" id="svg_23" points="233.708655807091,216.67051572556562 233.130621131383,216.67051572556562 232.55258645567497,216.67051572556562 231.97455177996696,216.67051572556562 231.39651710425898,216.0924810498576 230.81848242855094,214.9364116984416 230.81848242855094,213.78034234702557 230.81848242855094,213.2023076713175 230.81848242855094,212.6242729956095 230.24044775284293,212.04623831990148 230.24044775284293,211.46820364419347 230.24044775284293,210.89016896848545 230.24044775284293,210.31213429277744 229.66241307713494,209.15606494136142 229.66241307713494,208.5780302656534 229.66241307713494,207.9999955899454 229.66241307713494,207.4219609142374 229.66241307713494,206.84392623852938 229.66241307713494,206.26589156282137 230.24044775284293,206.26589156282137 230.81848242855094,205.68785688711336 231.39651710425898,205.68785688711336 " style="color: rgb(0, 0, 0);"/><polyline fill="none" stroke="#222222" stroke-width="2" stroke-linejoin="round" stroke-dashoffset="" fill-rule="nonzero" marker-start="" marker-mid="" marker-end="" id="svg_24" points="249.89362672691536,198.75144077861717 250.47166140262337,199.32947545432518 251.6277307540394,199.90751013003322 251.6277307540394,200.4855448057412 252.2057654297474,201.06357948144927 252.7838001054554,201.64161415715728 252.7838001054554,202.2196488328653 253.36183478116342,202.7976835085733 253.36183478116342,203.3757181842813 " style="color: rgb(0, 0, 0);"/><polyline fill="none" stroke="#222222" stroke-width="2" stroke-linejoin="round" stroke-dashoffset="" fill-rule="nonzero" marker-start="" marker-mid="" marker-end="" id="svg_25" points="226.77223969859477,168.11560296609247 226.77223969859477,167.53756829038446 226.77223969859477,166.95953361467645 227.3502743743028,166.95953361467645 " style="color: rgb(0, 0, 0);"/><polyline fill="none" stroke="#222222" stroke-width="2" stroke-linejoin="round" stroke-dashoffset="" fill-rule="nonzero" marker-start="" marker-mid="" marker-end="" id="svg_26" points="230.24044775284293,161.17918685759625 230.24044775284293,160.60115218188827 " style="color: rgb(0, 0, 0);"/></g></svg>